<svg xmlns="http://www.w3.org/2000/svg" viewBox="0 0 64 64">
  <defs>
    <linearGradient id="g" x1="0" y1="0" x2="1" y2="1">
      <stop offset="0" stop-color="#ff4fa3"/>
      <stop offset="1" stop-color="#8b5cf6"/>
    </linearGradient>
  </defs>
  <rect width="64" height="64" rx="16" fill="#0e0a2b"/>
  <path d="M8 26c0-5 5-8 11-8 5 0 9 2 13 5 4-3 8-5 13-5 6 0 11 3 11 8 0 10-7 18-15 18-4 0-7-2-9-5-2 3-5 5-9 5-8 0-15-8-15-18z" fill="url(#g)"/>
  <ellipse cx="21" cy="29" rx="5.5" ry="4" fill="#0e0a2b"/>
  <ellipse cx="43" cy="29" rx="5.5" ry="4" fill="#0e0a2b"/>
  <circle cx="22.5" cy="28.5" r="1.6" fill="#22d3ee"/>
  <circle cx="44.5" cy="28.5" r="1.6" fill="#22d3ee"/>
</svg>
